<svg id="Capa_1" enable-background="new 0 0 466.375 466.375" height="512" viewBox="0 0 466.375 466.375" width="512" xmlns="http://www.w3.org/2000/svg"><g><g transform="translate(-457 -200)"><g id="file-submit"><g><path clip-rule="evenodd" d="m842.656 415.25v210.766c0 10.7 4.251 20.969 11.821 28.539s17.839 11.821 28.539 11.821c22.287 0 40.359-18.072 40.359-40.359 0-53.194 0-136.576 0-183.859 0-7.139-2.834-13.982-7.884-19.023-5.04-5.049-11.883-7.884-19.022-7.884h-53.813z" fill-rule="evenodd"/></g><g><path clip-rule="evenodd" d="m824.898 404.613c-.117-.583-.179-1.184-.179-1.803v-175.904c0-7.139-2.834-13.982-7.883-19.023-5.041-5.049-11.884-7.884-19.023-7.884-73.49 0-240.416 0-313.906 0-7.139 0-13.982 2.834-19.023 7.884-5.049 5.04-7.884 11.884-7.884 19.023v17.938h71.75c4.951 0 8.969 4.018 8.969 8.969s-4.018 8.969-8.969 8.969h-71.75v215.25h71.75c4.951 0 8.969 4.018 8.969 8.969s-4.018 8.969-8.969 8.969h-71.75v98.656h215.25c4.951 0 8.969 4.018 8.969 8.969s-4.018 8.969-8.969 8.969h-215.25v26.906c0 7.139 2.834 13.982 7.884 19.023 5.041 5.049 11.884 7.883 19.023 7.883h357.046c-9.372-9.767-15.023-22.458-16.063-35.875h-62.952c-4.951 0-8.969-4.018-8.969-8.969s4.018-8.969 8.969-8.969h62.781v-161.438h-98.656c-4.951 0-8.969-4.018-8.969-8.969s4.018-8.969 8.969-8.969h98.656v-26.906l.108-1.363zm-224.398-47.149-8.78 8c-7.883 7.175-19.247 9.031-28.996 4.726s-16.036-13.955-16.036-24.61c0-15.238 0-31.193 0-40.915 0-8.727 4.233-16.915 11.346-21.955 16.045-11.372 53.499-37.911 71.75-50.853 9.327-6.601 21.794-6.601 31.121 0 18.251 12.942 55.705 39.48 71.75 50.853 7.112 5.04 11.346 13.229 11.346 21.955v40.915c0 10.655-6.287 20.305-16.036 24.61s-21.112 2.448-28.996-4.726l-8.78-8v183.303c0 14.861-12.045 26.906-26.906 26.906-10.96 0-24.915 0-35.875 0-14.861 0-26.906-12.045-26.906-26.906v-183.303z" fill-rule="evenodd"/></g><g><path clip-rule="evenodd" d="m672.681 338.047c-.135-2.323.628-4.7 2.323-6.556 3.327-3.659 9.005-3.928 12.664-.592 0 0 11.229 10.233 23.381 21.31 2.628 2.395 6.422 3.005 9.668 1.57 3.247-1.435 5.345-4.646 5.345-8.197 0-15.238 0-31.193 0-40.915 0-2.915-1.408-5.641-3.785-7.318-16.045-11.372-53.49-37.911-71.75-50.853-3.103-2.197-7.265-2.197-10.368 0-18.26 12.942-55.705 39.48-71.75 50.853-2.377 1.677-3.785 4.404-3.785 7.318v40.915c0 3.552 2.099 6.762 5.345 8.197 3.247 1.435 7.04.825 9.668-1.57 12.063-11.005 23.184-21.13 23.184-21.13 3.659-3.336 9.336-3.067 12.673.592 1.525 1.668 2.296 3.767 2.332 5.866.395 1.013.61 2.108.61 3.256v199.976c0 4.96 4.018 8.969 8.969 8.969h35.875c4.951 0 8.969-4.009 8.969-8.969 0-52.135 0-199.976 0-199.976.001-.961.153-1.885.432-2.746z" fill-rule="evenodd"/></g></g></g></g></svg>